<svg width="927" height="926" xmlns="http://www.w3.org/2000/svg">

 <g>
  <title>Layer 1</title>
  <path id="svg_2" d="m284.657,0.25l1.816,-0.0165l354.497,0.0677l100.733,-0.2778c21.347,-0.0687 43.946,-1.7276 65.021,2.0896c27.396,4.9621 54.974,19.512 74.777,39.0644c29.462,29.0876 45.176,66.0426 45.461,107.5046l-0.162,454.415l0.114,129.508c-0.025,22.543 1.755,51.145 -2.059,72.887c-5.34,30.45 -19.602,57.241 -41.33,79.099c-18.324,18.435 -42.952,31.764 -68.177,37.676c-24.527,5.748 -50.734,3.481 -75.752,3.506l-96.334,0.246l-379.492,-0.177q-41.905,-0.237 -83.809,0.11c-19.41,0.054 -39.578,1.393 -58.73,-2.148q-2.694,-0.475 -5.368,-1.05q-2.675,-0.574 -5.326,-1.248q-2.651,-0.674 -5.275,-1.446q-2.624,-0.772 -5.218,-1.641q-2.594,-0.869 -5.153,-1.834q-2.56,-0.965 -5.082,-2.024q-2.522,-1.059 -5.003,-2.211q-2.481,-1.153 -4.917,-2.397q-2.436,-1.243 -4.824,-2.577q-2.389,-1.333 -4.726,-2.755q-2.337,-1.421 -4.62,-2.928q-2.282,-1.508 -4.507,-3.099q-2.225,-1.591 -4.39,-3.264q-2.164,-1.673 -4.265,-3.425q-2.1003,-1.752 -4.1343,-3.581q-2.0341,-1.829 -3.9987,-3.732q-1.1235,-1.108 -2.2234,-2.239q-1.0998,-1.132 -2.1755,-2.286q-1.0756,-1.155 -2.1265,-2.331q-1.051,-1.177 -2.0768,-2.376q-1.0257,-1.199 -2.0259,-2.42q-1.0002,-1.22 -1.9742,-2.461q-0.9741,-1.242 -1.9217,-2.503q-0.9476,-1.262 -1.8682,-2.544q-0.9207,-1.281 -1.814,-2.582q-0.8933,-1.3 -1.7589,-2.62q-0.8655,-1.319 -1.7029,-2.656q-0.8375,-1.337 -1.6464,-2.692q-0.8089,-1.355 -1.5889,-2.726q-0.7801,-1.372 -1.5309,-2.76q-0.7508,-1.388 -1.4721,-2.791q-0.7212,-1.403 -1.4126,-2.822q-0.6914,-1.418 -1.3526,-2.851q-0.6612,-1.432 -1.2919,-2.879q-0.6307,-1.446 -1.2306,-2.905q-0.5999,-1.46 -1.1688,-2.932q-0.5689,-1.471 -1.1064,-2.955q-0.5376,-1.483 -1.0437,-2.978q-0.506,-1.494 -0.9803,-2.999q-0.4743,-1.505 -0.9166,-3.02q-0.4423,-1.514 -0.8524,-3.038q-0.4102,-1.524 -0.7879,-3.056q-0.3778,-1.532 -0.723,-3.071q-0.3453,-1.54 -0.6578,-3.087q-0.3126,-1.546 -0.5923,-3.099q-0.2797,-1.553 -0.5265,-3.111q-0.2468,-1.559 -0.4605,-3.122q-0.2137,-1.563 -0.3943,-3.131c-0.664,-6.124 -0.6491,-12.292 -0.7019,-18.444l-0.3787,-448.735l0.0693,-128.167l0.0536,-37.276c0.0341,-13.917 -0.0947,-27.674 2.3609,-41.437q0.4707,-2.758 1.0477,-5.497q0.577,-2.738 1.2595,-5.452q0.6824,-2.713 1.4693,-5.399q0.7869,-2.685 1.677,-5.338q0.8902,-2.653 1.8822,-5.27q0.9921,-2.616 2.0846,-5.192q1.0924,-2.577 2.2837,-5.109q1.1913,-2.532 2.4796,-5.016q1.2883,-2.484 2.6717,-4.916q1.3834,-2.433 2.8598,-4.81q1.4764,-2.377 3.0436,-4.695q1.5672,-2.319 3.2229,-4.574q1.6557,-2.256 3.3974,-4.447q1.7417,-2.19 3.5667,-4.311q1.8251,-2.1212 3.7308,-4.1703q1.9058,-2.0491 3.8893,-4.0229q1.1064,-1.1316 2.2377,-2.2384q1.1313,-1.1068 2.2868,-2.1883q1.1556,-1.0814 2.3348,-2.137q1.1793,-1.0555 2.3812,-2.0846q1.203,-1.0292 2.428,-2.0314q1.225,-1.0022 2.471,-1.977q1.247,-0.9748 2.515,-1.9217q1.269,-0.9469 2.557,-1.8654q1.289,-0.9185 2.598,-1.8083q1.309,-0.8897 2.637,-1.7502q1.329,-0.8604 2.676,-1.6912q1.347,-0.8308 2.712,-1.6315q1.365,-0.8008 2.748,-1.571q1.382,-0.7702 2.782,-1.5096q1.399,-0.7394 2.814,-1.4476q1.416,-0.7081 2.846,-1.3847q1.431,-0.6766 2.877,-1.3213q1.445,-0.6447 2.904,-1.2572q1.46,-0.6125 2.932,-1.1924q1.473,-0.58 2.958,-1.1271q1.485,-0.5472 2.982,-1.0613q1.497,-0.514 3.004,-0.9948q1.508,-0.4808 3.027,-0.9279q1.518,-0.4472 3.045,-0.8606q1.528,-0.4134 3.065,-0.7929q1.536,-0.3794 3.081,-0.7246q1.544,-0.3453 3.096,-0.6562q1.552,-0.3109 3.11,-0.5873q1.558,-0.2764 3.123,-0.5181q1.564,-0.2418 3.133,-0.4488q1.569,-0.207 3.142,-0.3792q1.573,-0.1722 3.15,-0.3094c18.574,-1.6252 40.207,-0.5444 59.034,-0.5314l92.981,-0.0924z" fill="#4CC987"/>
  <path id="svg_3" d="m452.352,54.719q2.322,-0.125 4.647,-0.165q4.985,-0.11 9.97,-0.096q4.986,0.014 9.97,0.151q4.984,0.136 9.963,0.397q4.979,0.26 9.95,0.643q4.971,0.383 9.931,0.889q4.96,0.506 9.907,1.134q4.946,0.629 9.875,1.379q4.929,0.751 9.838,1.623q4.909,0.872 9.794,1.865q4.886,0.994 9.746,2.108q4.86,1.113 9.691,2.347q4.83,1.234 9.629,2.586q4.799,1.353 9.563,2.824q4.764,1.471 9.49,3.059q4.726,1.589 9.411,3.293q4.686,1.705 9.327,3.525q4.642,1.82 9.238,3.754q4.595,1.935 9.141,3.982q4.546,2.047 9.04,4.206q4.494,2.159 8.934,4.429q4.439,2.269 8.821,4.648q4.382,2.379 8.703,4.865q4.322,2.486 8.581,5.078q4.259,2.593 8.452,5.29q4.194,2.696 8.319,5.496q4.126,2.8 8.181,5.701q4.055,2.901 8.037,5.901q3.982,3 7.889,6.098q3.907,3.098 7.735,6.291q3.829,3.194 7.578,6.481q3.749,3.287 7.415,6.666q3.666,3.379 7.248,6.847q3.638,3.475 7.188,7.038q3.55,3.564 7.011,7.214q3.461,3.651 6.831,7.386q3.37,3.734 6.646,7.552q3.276,3.817 6.457,7.714q3.181,3.897 6.264,7.872q3.083,3.974 6.067,8.024q2.984,4.05 5.867,8.172q2.883,4.123 5.663,8.315q2.78,4.193 5.455,8.453q2.675,4.26 5.244,8.585q2.569,4.325 5.03,8.712q2.461,4.387 4.813,8.834q2.352,4.447 4.593,8.95q2.241,4.504 4.37,9.062q2.128,4.557 4.144,9.167q2.015,4.609 3.916,9.266q1.9,4.657 3.685,9.361q1.785,4.703 3.453,9.449q1.667,4.745 3.217,9.531q1.55,4.786 2.981,9.608q1.431,4.823 2.742,9.679q1.311,4.857 2.501,9.745q1.191,4.887 2.26,9.802q1.069,4.916 2.016,9.856q0.947,4.941 1.772,9.903q0.824,4.962 1.526,9.944q0.701,4.981 1.279,9.978q0.578,4.997 1.032,10.007q0.454,5.01 0.784,10.029q0.33,5.02 0.535,10.046q0.206,5.026 0.287,10.056c0.304,18.508 -0.108,36.974 -2.133,55.384q-0.479,4.162 -1.043,8.313q-0.565,4.151 -1.215,8.29q-0.651,4.138 -1.387,8.262q-0.736,4.124 -1.557,8.232q-0.821,4.108 -1.728,8.199q-0.906,4.09 -1.897,8.16q-0.991,4.07 -2.066,8.12q-1.074,4.049 -2.233,8.075q-1.159,4.026 -2.4,8.027q-1.242,4.001 -2.566,7.975q-1.325,3.975 -2.731,7.921q-1.407,3.946 -2.895,7.862q-1.488,3.916 -3.056,7.801q-1.569,3.884 -3.218,7.736q-1.648,3.851 -3.377,7.667q-1.728,3.816 -3.535,7.596q-1.807,3.779 -3.692,7.521q-1.884,3.741 -3.846,7.443q-1.962,3.701 -4,7.361q-2.039,3.66 -4.152,7.277q-2.114,3.617 -4.302,7.19q-2.188,3.572 -4.45,7.099q-2.261,3.526 -4.595,7.005q-2.335,3.479 -4.74,6.908q-2.406,3.43 -4.882,6.809q-2.477,3.379 -5.022,6.706q-2.546,3.328 -5.16,6.601q-2.614,3.274 -5.296,6.492q-2.681,3.219 -5.429,6.382q-2.747,3.162 -5.56,6.267q-2.812,3.105 -5.688,6.151q-2.876,3.046 -5.815,6.032c-71.745,74.002 -174.558,121.81 -278.204,123.377c-110.277,3.111 -208.113,-34.249 -289.784,-108.008c-82.518,-74.525 -126.018,-173.797 -131.504,-284.236q-0.205,-4.923 -0.29,-9.85q-0.085,-4.926 -0.051,-9.854q0.033,-4.927 0.186,-9.852q0.154,-4.925 0.426,-9.844q0.272,-4.92 0.663,-9.832q0.391,-4.912 0.901,-9.813q0.51,-4.9 1.138,-9.788q0.628,-4.887 1.375,-9.757q0.746,-4.871 1.61,-9.722q0.864,-4.851 1.845,-9.679q0.981,-4.829 2.079,-9.633q1.097,-4.803 2.311,-9.579q1.213,-4.775 2.542,-9.52q1.329,-4.745 2.772,-9.456q1.443,-4.711 3,-9.386q1.556,-4.675 3.226,-9.311q1.669,-4.636 3.45,-9.23q1.781,-4.594 3.673,-9.144q1.891,-4.55 3.892,-9.053q2.002,-4.502 4.111,-8.955q2.11,-4.453 4.326,-8.854q2.217,-4.4 4.539,-8.746q2.323,-4.346 4.75,-8.634q2.427,-4.288 4.957,-8.516q2.53,-4.228 5.161,-8.394q2.632,-4.166 5.363,-8.267q2.732,-4.101 5.562,-8.134q2.83,-4.034 5.756,-7.998q2.927,-3.964 5.949,-7.856q3.022,-3.892 6.137,-7.709q3.115,-3.818 6.321,-7.559q3.207,-3.741 6.503,-7.404q2.894,-3.252 5.858,-6.44q2.964,-3.189 5.996,-6.313q3.031,-3.124 6.13,-6.183q3.098,-3.058 6.261,-6.049q3.163,-2.99 6.39,-5.912q3.227,-2.922 6.517,-5.774q3.289,-2.852 6.638,-5.633q3.35,-2.78 6.759,-5.488q3.409,-2.707 6.875,-5.341q3.466,-2.634 6.988,-5.192q3.523,-2.559 7.099,-5.041q3.577,-2.482 7.206,-4.887q3.629,-2.404 7.309,-4.73q3.679,-2.326 7.409,-4.572q3.729,-2.246 7.505,-4.411q3.777,-2.166 7.599,-4.249q3.823,-2.084 7.689,-4.085q3.866,-2 7.775,-3.918q3.908,-1.917 7.857,-3.749q3.949,-1.833 7.936,-3.58q3.988,-1.747 8.012,-3.408q4.024,-1.661 8.083,-3.235q4.059,-1.574 8.15,-3.06q4.092,-1.486 8.215,-2.884q4.123,-1.398 8.275,-2.706q4.152,-1.309 8.331,-2.528q4.179,-1.219 8.384,-2.348q4.204,-1.129 8.432,-2.167q4.228,-1.038 8.477,-1.985q4.249,-0.947 8.517,-1.802q4.269,-0.855 8.555,-1.618q4.286,-0.763 8.587,-1.434c17.052,-2.633 34.299,-3.731 51.518,-4.551z" fill="#058A55"/>
  <path id="svg_4" d="m699.378,355.172c25.361,25.479 51.713,50.052 77.639,74.965q11.597,11.157 23.006,22.506c4.707,4.659 9.973,9.276 13.911,14.629c1.709,2.322 2.632,4.845 2.682,7.736c0.073,4.204 -1.67,8.301 -4.594,11.296c-2.999,3.072 -7.265,4.964 -11.58,4.898c-4.081,-0.062 -7.725,-2.152 -10.883,-4.581c-6.215,-4.781 -11.499,-10.917 -17.038,-16.445c-8.3,-8.282 -16.735,-16.401 -24.952,-24.771q-34.265,-34.359 -67.982,-69.256c3.418,-5.211 14.901,-15.559 19.791,-20.977z" fill="#FCFCFB"/>
  <path id="svg_5" d="m188.594,480.886c-0.568,2.545 0.825,6.024 0.97,8.737c0.621,11.652 -3.47,23.678 -11.384,32.282c-8.107,8.812 -18.843,13.773 -30.807,14.224c-11.871,0.447 -23.436,-3.416 -32.184,-11.546c-8.727,-8.112 -14.603,-20.079 -14.925,-32.064c-0.304,-11.317 3.871,-23.086 11.682,-31.328c7.878,-8.314 19.403,-14.168 30.967,-14.373c4.277,-0.076 8.618,0.788 12.835,0.6l0.75,-0.04c4.682,2.403 9.662,3.94 14.024,6.984c4.884,3.58 8.707,8.2 12.087,13.184c2.305,4.298 4.724,8.596 5.985,13.34z" fill="#4CC987"/>
  <path id="svg_6" d="m141.801,474.552c3.805,-0.355 7.257,-0.236 10.752,1.483c3.924,1.93 6.78,5.374 8.157,9.502c1.526,4.575 1.207,9.782 -1.077,14.055c-2.489,4.657 -6.364,6.934 -11.217,8.474c-3.531,0.476 -6.841,0.462 -10.189,-0.919q-0.764,-0.317 -1.491,-0.71q-0.728,-0.393 -1.411,-0.858q-0.684,-0.465 -1.317,-0.997q-0.633,-0.532 -1.209,-1.125q-0.576,-0.593 -1.088,-1.242q-0.513,-0.649 -0.957,-1.347q-0.444,-0.697 -0.814,-1.436q-0.371,-0.739 -0.665,-1.512q-0.165,-0.417 -0.309,-0.841q-0.143,-0.425 -0.265,-0.856q-0.122,-0.432 -0.222,-0.869q-0.099,-0.437 -0.177,-0.878q-0.077,-0.442 -0.132,-0.887q-0.054,-0.445 -0.086,-0.892q-0.032,-0.447 -0.041,-0.895q-0.009,-0.448 0.005,-0.897q0.014,-0.448 0.05,-0.894q0.037,-0.447 0.096,-0.891q0.06,-0.445 0.142,-0.885q0.082,-0.441 0.186,-0.877q0.104,-0.436 0.231,-0.866q0.126,-0.43 0.274,-0.853q0.148,-0.423 0.318,-0.838q0.169,-0.415 0.36,-0.821c2.515,-5.22 6.853,-7.639 12.096,-9.428z" fill="#058A55"/>
  <path id="svg_7" d="m228.994,375.683c-4.857,-15.65 -4.846,-29.961 2.975,-44.726q0.596,-1.143 1.249,-2.255q0.652,-1.112 1.36,-2.19q0.707,-1.078 1.468,-2.119q0.761,-1.041 1.573,-2.043q0.811,-1.002 1.672,-1.962q0.861,-0.959 1.769,-1.875q0.908,-0.915 1.861,-1.784q0.953,-0.869 1.948,-1.689q0.995,-0.82 2.03,-1.589q1.035,-0.769 2.107,-1.485q1.072,-0.717 2.179,-1.378q1.106,-0.662 2.245,-1.268q1.138,-0.605 2.305,-1.153q1.168,-0.547 2.361,-1.036q1.193,-0.488 2.41,-0.916q1.216,-0.428 2.452,-0.795c9.803,-2.966 19.208,-2.506 29.007,0.119c-10.974,11.425 -21.334,23.726 -32.89,34.543l31.549,25.472q16.003,-15.939 31.701,-32.179c6.081,11.928 7.238,25.296 3.052,38.079c-4.381,13.379 -13.555,24.129 -26.185,30.364c-11.576,5.714 -23.6,6.577 -36.096,3.907c-24.056,25.779 -50.058,49.753 -74.502,75.161c-1.261,-4.744 -3.68,-9.042 -5.985,-13.34c-3.38,-4.984 -7.203,-9.604 -12.087,-13.184c-4.362,-3.044 -9.342,-4.581 -14.024,-6.984c10.495,-9.29 20.211,-19.879 30.189,-29.754c14.092,-13.944 28.577,-27.643 42.307,-41.941z" fill="#FCFCFB"/>
  <path id="svg_8" d="m236.484,387.999c4.192,4.047 8.234,8.363 12.948,11.805c-8.417,9.553 -17.835,18.406 -26.8,27.449c-13.322,13.437 -26.518,27.041 -40.023,40.293c-3.38,-4.984 -7.203,-9.604 -12.087,-13.184q20.45,-21.421 41.539,-42.214c8.067,-8.056 15.992,-16.482 24.423,-24.149z" fill="#67999D"/>
  <path id="svg_9" d="m679.587,376.149c-5.141,0.862 -19.811,24.181 -30.402,26.37c-3.215,0.664 -6.281,-0.17 -8.959,-2.009c-4.787,-3.288 -35.296,-35.466 -38.943,-40.45c-2.233,-3.051 -3.975,-6.45 -4.676,-10.193c-1.094,-5.848 -0.079,-9.659 3.204,-14.526c3.75,-5.559 8.761,-10.317 13.407,-15.127q11.924,-12.198 24.03,-24.215c9.664,-9.68 19.261,-20.631 29.8,-29.298c2.493,-2.051 6.133,-4.858 9.341,-5.335c4.208,-0.627 8.002,0.67 11.295,3.221c7.103,5.501 13.472,12.792 19.843,19.13c6.961,6.925 15.52,14.104 21.212,22.1c1.618,2.274 2.793,4.862 3.079,7.664c0.298,2.919 -0.288,6.151 -1.615,8.768c-4.856,9.577 -22.973,23.042 -30.548,32.566c-0.094,0.118 -0.185,0.238 -0.277,0.357c-4.89,5.418 -16.373,15.766 -19.791,20.977z" fill="#67999D"/>
  <path id="svg_10" d="m358.46,239.804l-0.009,-29.058c-0.002,-8.748 -0.85,-18.323 1.402,-26.841c1.38,-5.22 3.993,-9.996 7.838,-13.816c4.065,-4.04 9.644,-7.492 15.329,-8.558c6.65,-1.247 14.217,-0.86 20.974,-0.895l31.324,-0.062c32.809,-0.029 65.682,-0.505 98.485,-0.071c10.127,0.134 19.174,2.739 26.26,10.349c3.805,4.087 6.209,9.353 7.424,14.766c1.688,7.518 1.065,15.723 1.032,23.394l-0.134,31.005c-16.699,-0.564 -33.639,-0.036 -50.36,-0.072l-109.284,-0.043c-16.692,0.003 -33.613,0.633 -50.281,-0.098z" fill="#4CC987"/>
  <path id="svg_11" d="m326.355,435.224l0.025,103.746c-8.758,0.48 -16.521,3.107 -22.512,9.88q-0.733,0.82 -1.405,1.69q-0.672,0.87 -1.279,1.786q-0.608,0.916 -1.149,1.873q-0.54,0.957 -1.011,1.951q-0.471,0.993 -0.869,2.018q-0.398,1.024 -0.721,2.075q-0.324,1.051 -0.572,2.122q-0.247,1.071 -0.417,2.157c-0.976,5.856 -0.59,12.069 -0.573,17.993l0.061,25.033c0.017,32.578 0.41,65.296 -0.412,97.862c-11.754,0.096 -23.263,1.287 -34.284,-3.719c-10.548,-4.79 -18.965,-13.305 -22.97,-24.233q-1.109,-3.061 -1.777,-6.247q-0.668,-3.186 -0.882,-6.434c-0.458,-6.249 -0.166,-12.645 -0.145,-18.911l0.037,-31.234l-0.058,-38.089c-0.014,-11.849 -0.213,-23.568 1.38,-35.341q0.676,-4.751 1.71,-9.438q1.034,-4.687 2.42,-9.282q1.386,-4.595 3.115,-9.072q1.73,-4.477 3.793,-8.81c16.492,-34.683 42.466,-56.649 78.495,-69.376z" fill="#FCFCFB"/>
  <path id="svg_12" d="m602.881,436.671c35.654,12.913 62.035,34.523 78.293,69.133c5.356,11.402 9.253,23.703 10.874,36.217c1.29,9.963 1.084,20.116 1.139,30.145l0.078,41.251l-0.005,38.784c-0.007,7.234 0.289,14.623 -0.26,21.834q-0.166,2.305 -0.644,4.566q-0.477,2.261 -1.258,4.436c-2.987,8.168 -9.563,14.403 -17.37,18.01c-12.481,5.768 -29.276,3.96 -42.691,3.869c-0.54,-11.937 -0.149,-24.122 -0.152,-36.083l0.088,-67.118c0.034,-11.944 1.249,-30.817 -0.724,-41.994c-0.809,-4.581 -2.959,-8.463 -6.045,-11.903c-5.917,-6.595 -13.172,-8.816 -21.78,-9.299q0.175,-19.644 -0.025,-39.287c0.415,-14.802 0.033,-29.714 0.032,-44.528c0,-5.453 -0.934,-12.866 0.45,-18.033z" fill="#FCFCFB"/>
  <path id="svg_13" d="m326.355,435.224c18.01,-6.357 39.399,-4.723 58.285,-4.807q14.009,-0.104 28.016,0.113l102.207,-0.003c9.205,0.009 18.418,-0.068 27.622,0.039c20.332,0.348 40.855,-0.602 60.396,6.105c-1.384,5.167 -0.45,12.58 -0.45,18.033c0.001,14.814 0.383,29.726 -0.032,44.528c-0.723,5.029 -0.438,10.367 -0.448,15.443l-0.004,24.228l-39.73,-0.017c-6.523,0.016 -13.243,0.362 -19.746,0.004l-157.428,0.099c-19.536,-0.329 -39.12,0.046 -58.663,-0.019l-0.025,-103.746z" fill="#FCFCFB"/>
  <path id="svg_14" d="m412.656,430.53l102.207,-0.003c-0.105,16.491 -2.873,29.138 -14.847,41.376q-0.872,0.903 -1.788,1.761q-0.916,0.858 -1.875,1.668q-0.958,0.811 -1.956,1.572q-0.999,0.76 -2.034,1.47q-1.036,0.709 -2.106,1.365q-1.07,0.656 -2.172,1.257q-1.102,0.601 -2.233,1.146q-1.131,0.544 -2.288,1.031q-1.157,0.486 -2.337,0.914q-1.18,0.427 -2.38,0.794q-1.201,0.367 -2.418,0.673q-1.217,0.306 -2.448,0.55q-1.232,0.244 -2.474,0.425q-1.242,0.181 -2.491,0.299q-1.25,0.118 -2.504,0.173q-1.254,0.055 -2.509,0.046q-1.263,-0.002 -2.524,-0.067q-1.261,-0.064 -2.517,-0.191q-1.256,-0.126 -2.505,-0.315q-1.249,-0.188 -2.486,-0.437q-1.238,-0.25 -2.462,-0.56q-1.224,-0.31 -2.431,-0.68q-1.208,-0.37 -2.395,-0.799q-1.188,-0.429 -2.353,-0.916q-1.165,-0.487 -2.304,-1.031q-1.14,-0.544 -2.251,-1.143q-1.112,-0.599 -2.192,-1.252q-1.081,-0.653 -2.128,-1.359q-1.047,-0.706 -2.058,-1.462q-1.012,-0.756 -1.984,-1.562q-0.973,-0.805 -1.905,-1.657q-0.931,-0.852 -1.82,-1.749c-11.535,-11.691 -15.059,-25.33 -15.032,-41.337z" fill="#4CC987"/>
  <path id="svg_15" d="m326.355,435.224c18.01,-6.357 39.399,-4.723 58.285,-4.807l0.403,108.572c-19.536,-0.329 -39.12,0.046 -58.663,-0.019l-0.025,-103.746z" fill="#0DBE6A"/>
  <path id="svg_16" d="m542.485,430.566c20.332,0.348 40.855,-0.602 60.396,6.105c-1.384,5.167 -0.45,12.58 -0.45,18.033c0.001,14.814 0.383,29.726 -0.032,44.528c-0.723,5.029 -0.438,10.367 -0.448,15.443l-0.004,24.228l-39.73,-0.017c-6.523,0.016 -13.243,0.362 -19.746,0.004l0.014,-108.324z" fill="#0DBE6A"/>
  <path id="svg_17" d="m358.46,239.804c16.668,0.731 33.589,0.101 50.281,0.098l109.284,0.043c16.721,0.036 33.661,-0.492 50.36,0.072c11.281,0.483 27.192,-3.149 35.629,6.221c3.811,4.232 5.907,9.931 5.38,15.633c-0.438,4.744 -2.672,9.339 -6.365,12.392c-7.755,6.411 -24.38,4.431 -34.001,3.718c0.062,44.102 2.338,75.647 -31.475,110.118c-19.493,19.873 -45.589,32.26 -73.672,32.429c-27.818,0.168 -54.728,-12.415 -74.263,-31.872q-1.606,-1.608 -3.142,-3.283q-1.537,-1.675 -3.001,-3.413q-1.464,-1.738 -2.854,-3.537q-1.389,-1.798 -2.701,-3.654q-1.312,-1.856 -2.545,-3.766q-1.232,-1.909 -2.383,-3.869q-1.15,-1.96 -2.216,-3.967q-1.067,-2.007 -2.047,-4.058q-0.981,-2.05 -1.874,-4.14q-0.893,-2.09 -1.697,-4.216q-0.803,-2.126 -1.516,-4.284q-0.713,-2.158 -1.335,-4.344q-0.621,-2.187 -1.149,-4.397q-0.528,-2.211 -0.962,-4.442q-0.434,-2.231 -0.773,-4.478q-0.339,-2.247 -0.583,-4.507c-1.599,-15.321 -0.682,-31.305 -0.672,-46.708c-5.142,0.269 -10.326,0.671 -15.474,0.67c-5.881,0 -11.165,-1.163 -15.375,-5.597q-0.347,-0.366 -0.676,-0.748q-0.328,-0.382 -0.638,-0.78q-0.309,-0.398 -0.598,-0.811q-0.29,-0.413 -0.558,-0.839q-0.269,-0.427 -0.516,-0.866q-0.248,-0.439 -0.473,-0.89q-0.226,-0.451 -0.429,-0.913q-0.203,-0.461 -0.383,-0.932q-0.18,-0.471 -0.336,-0.95q-0.157,-0.479 -0.289,-0.965q-0.133,-0.487 -0.242,-0.979q-0.109,-0.492 -0.193,-0.989q-0.084,-0.497 -0.144,-0.998q-0.059,-0.5 -0.094,-1.003q-0.035,-0.503 -0.046,-1.007q-0.01,-0.504 0.005,-1.008q0.03,-0.912 0.15,-1.817q0.119,-0.905 0.327,-1.793q0.207,-0.889 0.501,-1.753q0.293,-0.864 0.67,-1.695q0.376,-0.832 0.832,-1.622q0.457,-0.79 0.988,-1.532q0.531,-0.742 1.133,-1.429q0.601,-0.686 1.267,-1.31c7.661,-7.077 21.178,-5.46 30.883,-5.233z" fill="#FCFCFB"/>
  <path id="svg_18" d="m358.46,239.804c16.668,0.731 33.589,0.101 50.281,0.098l109.284,0.043c16.721,0.036 33.661,-0.492 50.36,0.072c11.281,0.483 27.192,-3.149 35.629,6.221c3.811,4.232 5.907,9.931 5.38,15.633c-0.438,4.744 -2.672,9.339 -6.365,12.392c-7.755,6.411 -24.38,4.431 -34.001,3.718c-7.347,-1.175 -15.709,-0.495 -23.171,-0.504l-43.584,-0.017c-47.983,-0.008 -96.145,-0.887 -144.105,0.133c-5.142,0.269 -10.326,0.671 -15.474,0.67c-5.881,0 -11.165,-1.163 -15.375,-5.597q-0.347,-0.366 -0.676,-0.748q-0.328,-0.382 -0.638,-0.78q-0.309,-0.398 -0.598,-0.811q-0.29,-0.413 -0.558,-0.839q-0.269,-0.427 -0.516,-0.866q-0.248,-0.439 -0.473,-0.89q-0.226,-0.451 -0.429,-0.913q-0.203,-0.461 -0.383,-0.932q-0.18,-0.471 -0.336,-0.95q-0.157,-0.479 -0.289,-0.965q-0.133,-0.487 -0.242,-0.979q-0.109,-0.492 -0.193,-0.989q-0.084,-0.497 -0.144,-0.998q-0.059,-0.5 -0.094,-1.003q-0.035,-0.503 -0.046,-1.007q-0.01,-0.504 0.005,-1.008q0.03,-0.912 0.15,-1.817q0.119,-0.905 0.327,-1.793q0.207,-0.889 0.501,-1.753q0.293,-0.864 0.67,-1.695q0.376,-0.832 0.832,-1.622q0.457,-0.79 0.988,-1.532q0.531,-0.742 1.133,-1.429q0.601,-0.686 1.267,-1.31c7.661,-7.077 21.178,-5.46 30.883,-5.233z" fill="#0DBE6A"/>
  <path id="svg_19" d="m601.947,538.903l0.004,-24.228c0.01,-5.076 -0.275,-10.414 0.448,-15.443q0.2,19.643 0.025,39.287c8.608,0.483 15.863,2.704 21.78,9.299c3.086,3.44 5.236,7.322 6.045,11.903c1.973,11.177 0.758,30.05 0.724,41.994l-0.088,67.118c0.003,11.961 -0.388,24.146 0.152,36.083c0.221,11.039 -0.275,20.329 -8.308,28.763c-4.748,4.985 -11.106,7.7 -17.98,7.828c-0.251,0.005 -0.502,0.002 -0.753,0.003q-137.977,0.806 -275.956,0.027c-0.839,0.153 -1.628,0.217 -2.481,0.239c-8.619,0.219 -17.371,-2.019 -23.671,-8.204c-7.8,-7.659 -6.439,-18.185 -6.367,-28.162c0.822,-32.566 0.429,-65.284 0.412,-97.862l-0.061,-25.033c-0.017,-5.924 -0.403,-12.137 0.573,-17.993q0.17,-1.086 0.417,-2.157q0.248,-1.071 0.572,-2.122q0.323,-1.051 0.721,-2.075q0.398,-1.025 0.869,-2.018q0.471,-0.994 1.011,-1.951q0.541,-0.957 1.149,-1.873q0.607,-0.916 1.279,-1.786q0.672,-0.87 1.405,-1.69c5.991,-6.773 13.754,-9.4 22.512,-9.88c19.543,0.065 39.127,-0.31 58.663,0.019l157.428,-0.099c6.503,0.358 13.223,0.012 19.746,-0.004l39.73,0.017z" fill="#8EDDB4"/>
  <path id="svg_20" d="m459.312,610.1c7.645,-0.608 14.589,0.202 21.183,4.539q0.641,0.421 1.26,0.874q0.62,0.453 1.216,0.936q0.596,0.482 1.167,0.994q0.572,0.512 1.117,1.051q0.545,0.54 1.064,1.105q0.518,0.566 1.007,1.157q0.489,0.591 0.949,1.205q0.459,0.614 0.888,1.25q0.429,0.636 0.825,1.293q0.397,0.657 0.76,1.332q0.364,0.676 0.693,1.368q0.33,0.693 0.625,1.401q0.295,0.708 0.554,1.43q0.26,0.722 0.483,1.456q0.224,0.734 0.41,1.478q0.187,0.744 0.337,1.496q0.155,0.746 0.272,1.499q0.117,0.753 0.197,1.511q0.08,0.758 0.121,1.519q0.042,0.761 0.045,1.523q0.004,0.762 -0.031,1.524q-0.034,0.761 -0.107,1.52q-0.072,0.758 -0.182,1.512q-0.111,0.754 -0.259,1.502q-0.147,0.748 -0.333,1.487q-0.185,0.739 -0.406,1.468q-0.222,0.73 -0.48,1.447q-0.258,0.717 -0.551,1.42q-0.293,0.704 -0.621,1.391q-0.328,0.688 -0.691,1.359q-0.362,0.671 -0.757,1.322q-0.395,0.652 -0.822,1.283c-5.21,7.857 -12.795,11.733 -21.816,13.586c-7.779,0.464 -14.915,-0.545 -21.56,-4.897q-0.628,-0.416 -1.235,-0.862q-0.607,-0.445 -1.191,-0.921q-0.585,-0.475 -1.145,-0.978q-0.56,-0.503 -1.095,-1.034q-0.535,-0.53 -1.043,-1.086q-0.508,-0.556 -0.989,-1.136q-0.48,-0.58 -0.931,-1.183q-0.452,-0.603 -0.873,-1.227q-0.421,-0.625 -0.811,-1.269q-0.39,-0.644 -0.748,-1.307q-0.358,-0.663 -0.683,-1.342q-0.325,-0.679 -0.616,-1.374q-0.291,-0.695 -0.548,-1.403q-0.256,-0.708 -0.478,-1.428q-0.222,-0.719 -0.408,-1.449q-0.186,-0.73 -0.336,-1.468c-1.612,-8.169 -0.056,-16.89 4.691,-23.779c5.266,-7.642 12.953,-11.446 21.882,-13.095z" fill="#0DBE6A"/>
  <path id="svg_21" d="m601.947,538.903l0.004,-24.228c0.01,-5.076 -0.275,-10.414 0.448,-15.443q0.2,19.643 0.025,39.287c8.608,0.483 15.863,2.704 21.78,9.299c3.086,3.44 5.236,7.322 6.045,11.903c1.973,11.177 0.758,30.05 0.724,41.994l-0.088,67.118c0.003,11.961 -0.388,24.146 0.152,36.083c0.221,11.039 -0.275,20.329 -8.308,28.763c-4.748,4.985 -11.106,7.7 -17.98,7.828c-0.251,0.005 -0.502,0.002 -0.753,0.003c0.453,-0.512 0.861,-1.041 1.235,-1.613c1.721,-2.622 2.129,-5.554 2.244,-8.632c0.3,-7.986 -0.071,-16.115 -0.112,-24.113l-0.105,-45.33c-0.039,-29.285 0.757,-58.693 0.211,-87.963c-0.043,-2.3 0.107,-5.968 -0.71,-8.111c-0.396,-1.039 -1.171,-1.439 -2.203,-1.716c-5.234,-1.406 -14.642,-0.338 -20.288,-0.314l-42.179,0.145l-168.406,-0.255l-31.266,-0.074c-5.387,-0.024 -10.955,-0.494 -16.314,-0.036c-1.739,0.149 -3.108,0.474 -4.642,1.295c-1.069,1.764 -0.921,4.806 -0.965,6.869c-0.275,12.914 0.166,25.917 0.225,38.841l0.122,71.355l0.047,34.152c0.005,6.295 -0.782,13.673 0.545,19.797c0.607,2.801 4.342,4.395 6.605,5.73c-0.839,0.153 -1.628,0.217 -2.481,0.239c-8.619,0.219 -17.371,-2.019 -23.671,-8.204c-7.8,-7.659 -6.439,-18.185 -6.367,-28.162c0.822,-32.566 0.429,-65.284 0.412,-97.862l-0.061,-25.033c-0.017,-5.924 -0.403,-12.137 0.573,-17.993q0.17,-1.086 0.417,-2.157q0.248,-1.071 0.572,-2.122q0.323,-1.051 0.721,-2.075q0.398,-1.025 0.869,-2.018q0.471,-0.994 1.011,-1.951q0.541,-0.957 1.149,-1.873q0.607,-0.916 1.279,-1.786q0.672,-0.87 1.405,-1.69c5.991,-6.773 13.754,-9.4 22.512,-9.88c19.543,0.065 39.127,-0.31 58.663,0.019l157.428,-0.099c6.503,0.358 13.223,0.012 19.746,-0.004l39.73,0.017z" fill="#4CC987"/>
 </g>
</svg>